<?xml version="1.0" standalone="no"?>
<!DOCTYPE svg PUBLIC "-//W3C//DTD SVG 20010904//EN"
 "http://www.w3.org/TR/2001/REC-SVG-20010904/DTD/svg10.dtd">
<svg version="1.0" xmlns="http://www.w3.org/2000/svg"
 width="320.000000pt" height="320.000000pt" viewBox="0 0 320.000000 320.000000"
 preserveAspectRatio="xMidYMid meet">
<metadata>
Created by potrace 1.14, written by Peter Selinger 2001-2017
</metadata>
<g transform="translate(0.000000,320.000000) scale(0.100000,-0.100000)"
fill="#000000" stroke="none">
<path d="M1285 3190 c-71 -16 -107 -53 -131 -138 -20 -75 -62 -125 -116 -140
-51 -14 -86 -7 -163 33 -53 28 -73 34 -103 29 -95 -15 -146 -75 -142 -168 5
-121 3 -135 -23 -174 -36 -56 -77 -72 -163 -66 -94 7 -129 -1 -168 -39 -69
-67 -69 -169 0 -247 9 -11 12 -37 10 -82 -2 -54 -7 -71 -27 -93 -36 -39 -89
-63 -146 -67 -7 -1 -13 -5 -13 -9 0 -3 -8 -9 -18 -11 -11 -3 -32 -22 -47 -43
-23 -29 -29 -47 -29 -89 0 -64 20 -98 86 -149 60 -46 82 -93 76 -158 -5 -53
-28 -87 -88 -130 -53 -38 -83 -102 -74 -156 12 -79 48 -114 142 -142 76 -23
107 -47 130 -100 24 -56 13 -121 -30 -181 -46 -64 -23 -171 46 -218 34 -24 61
-27 176 -21 101 4 172 -72 163 -176 -10 -115 -1 -150 52 -199 48 -44 140 -46
202 -4 52 37 110 45 165 24 51 -20 84 -62 102 -133 24 -91 63 -128 147 -139
58 -8 108 17 153 77 80 107 199 117 273 23 68 -86 92 -101 163 -101 76 0 141
56 154 132 2 17 5 31 6 33 2 1 3 7 4 12 0 6 14 26 30 46 32 40 79 64 126 64
29 0 49 -8 138 -55 67 -35 174 2 207 72 18 38 21 70 12 133 -19 132 83 215
228 186 40 -7 94 8 127 37 61 53 71 146 23 219 -44 67 -49 156 -9 195 8 8 14
18 14 22 0 10 76 47 115 56 102 23 156 123 118 217 -14 36 -39 62 -92 98 -13
8 -31 32 -42 52 -37 72 -18 154 46 204 68 53 75 61 89 95 39 96 -26 206 -134
224 -81 14 -143 83 -142 158 1 22 15 68 36 110 38 78 42 120 14 172 -37 69
-79 87 -183 81 -120 -7 -165 15 -199 94 -8 19 -12 51 -10 70 12 121 1 168 -52
209 -57 45 -114 45 -194 3 -51 -28 -76 -35 -119 -35 -29 1 -56 5 -60 10 -3 4
-18 16 -33 26 -28 18 -58 69 -62 109 -9 78 -80 140 -161 140 -55 0 -97 -22
-132 -69 -56 -76 -87 -95 -152 -96 -54 0 -92 18 -126 61 -52 66 -73 84 -115
96 -25 7 -58 10 -75 6z"/>
</g>
</svg>
